<svg width="21" height="21" viewBox="0 0 21 21" fill="none" xmlns="http://www.w3.org/2000/svg">
<path fill-rule="evenodd" clip-rule="evenodd" d="M6.12501 2.84375C6.29906 2.84375 6.46598 2.91289 6.58905 3.03596C6.71212 3.15903 6.78126 3.32595 6.78126 3.5V4.9595C9.25553 4.73915 11.7445 4.73915 14.2188 4.9595V3.5C14.2188 3.32595 14.2879 3.15903 14.411 3.03596C14.534 2.91289 14.701 2.84375 14.875 2.84375C15.0491 2.84375 15.216 2.91289 15.3391 3.03596C15.4621 3.15903 15.5313 3.32595 15.5313 3.5V5.089C16.1696 5.17952 16.7608 5.47647 17.2146 5.93449C17.6683 6.39252 17.9597 6.98646 18.0443 7.62563L18.1204 8.197C18.4389 10.5998 18.4109 13.0357 18.0381 15.4315C17.9483 16.0082 17.6694 16.5388 17.2452 16.9398C16.8211 17.3408 16.2758 17.5896 15.6949 17.647L14.651 17.7502C11.8904 18.0225 9.10965 18.0225 6.34901 17.7502L5.30514 17.647C4.72427 17.5896 4.17893 17.3408 3.75479 16.9398C3.33065 16.5388 3.05175 16.0082 2.96188 15.4315C2.589 13.0363 2.5613 10.6 2.87963 8.197L2.95576 7.62563C3.04031 6.98646 3.3317 6.39252 3.78546 5.93449C4.23922 5.47647 4.83041 5.17952 5.46876 5.089V3.5C5.46876 3.32595 5.5379 3.15903 5.66097 3.03596C5.78404 2.91289 5.95096 2.84375 6.12501 2.84375ZM6.51439 6.30263C9.16564 6.041 11.8344 6.041 14.4856 6.30263L15.2775 6.38138C16.0361 6.45575 16.6425 7.04287 16.7431 7.798L16.8193 8.36937C16.8455 8.56887 16.8691 8.76837 16.891 8.96875H4.10901C4.13088 8.76837 4.15451 8.56887 4.18076 8.36937L4.25688 7.798C4.30544 7.43103 4.47668 7.09127 4.74276 6.83393C5.00884 6.57658 5.35413 6.41679 5.72251 6.3805L6.51439 6.30263ZM4.00488 10.2812C3.91895 11.935 4.00398 13.5931 4.25863 15.2294C4.30373 15.5186 4.44361 15.7847 4.6563 15.9858C4.86899 16.1869 5.14246 16.3117 5.43376 16.3406L6.47763 16.4439C9.15251 16.7081 11.8475 16.7081 14.5224 16.4439L15.5663 16.3406C15.8576 16.3117 16.131 16.1869 16.3437 15.9858C16.5564 15.7847 16.6963 15.5186 16.7414 15.2294C16.9969 13.5914 17.0809 11.9333 16.9951 10.2812H4.00488Z" fill="#2E5A75"/>
</svg>
