<svg xmlns="http://www.w3.org/2000/svg" xmlns:xlink="http://www.w3.org/1999/xlink" version="1.1" width="256" height="256" viewBox="0 0 256 256" xml:space="preserve">

<defs>
</defs>
<g style="stroke: none; stroke-width: 0; stroke-dasharray: none; stroke-linecap: butt; stroke-linejoin: miter; stroke-miterlimit: 10; fill: none; fill-rule: nonzero; opacity: 1;" transform="translate(1.4065934065934016 1.4065934065934016) scale(2.81 2.81)" >
	<path d="M 75.764 77.042 H 9.35 c -2.958 0 -5.365 -2.407 -5.365 -5.366 c 0 -3.685 1.607 -7.17 4.408 -9.563 c 1.911 -1.633 3.007 -4.01 3.007 -6.522 V 31.157 C 11.4 13.977 25.377 0 42.557 0 c 5.077 0 10.116 1.249 14.572 3.611 c 0.977 0.518 1.348 1.728 0.83 2.704 c -0.517 0.975 -1.726 1.348 -2.703 0.831 C 51.374 5.088 46.982 4 42.557 4 C 27.583 4 15.4 16.183 15.4 31.157 V 55.59 c 0 3.685 -1.607 7.171 -4.409 9.563 c -1.911 1.633 -3.006 4.01 -3.006 6.522 c 0 0.753 0.612 1.366 1.365 1.366 h 66.414 c 0.753 0 1.365 -0.613 1.365 -1.366 c 0 -2.513 -1.096 -4.891 -3.006 -6.522 c -2.802 -2.393 -4.409 -5.878 -4.409 -9.563 V 36.198 c 0 -1.104 0.896 -2 2 -2 s 2 0.896 2 2 V 55.59 c 0 2.513 1.096 4.891 3.007 6.522 c 2.802 2.393 4.408 5.879 4.408 9.563 C 81.129 74.635 78.722 77.042 75.764 77.042 z" style="stroke: none; stroke-width: 1; stroke-dasharray: none; stroke-linecap: butt; stroke-linejoin: miter; stroke-miterlimit: 10; fill: rgb(0,0,0); fill-rule: nonzero; opacity: 1;" transform=" matrix(1 0 0 1 0 0) " stroke-linecap="round" />
	<path d="M 42.557 90 c -8.202 0 -14.875 -6.673 -14.875 -14.876 c 0 -0.051 0.004 -0.146 0.008 -0.195 c 0.02 -1.104 0.893 -1.919 2.034 -1.926 c 1.104 0.021 1.982 0.971 1.962 2.075 c 0 0.023 -0.002 0.062 -0.004 0.096 C 31.708 81.148 36.576 86 42.557 86 c 5.982 0 10.853 -4.855 10.876 -10.832 c -0.002 -0.045 -0.004 -0.096 -0.004 -0.126 c 0 -1.104 0.896 -2 2 -2 c 1.082 0 1.963 0.859 1.999 1.933 c 0.003 0.049 0.005 0.113 0.005 0.149 C 57.433 83.327 50.76 90 42.557 90 z" style="stroke: none; stroke-width: 1; stroke-dasharray: none; stroke-linecap: butt; stroke-linejoin: miter; stroke-miterlimit: 10; fill: rgb(0,0,0); fill-rule: nonzero; opacity: 1;" transform=" matrix(1 0 0 1 0 0) " stroke-linecap="round" />
	<path d="M 66.525 38.981 c -10.747 0 -19.49 -8.744 -19.49 -19.491 S 55.778 0 66.525 0 s 19.49 8.743 19.49 19.49 S 77.272 38.981 66.525 38.981 z M 66.525 4 c -8.541 0 -15.49 6.949 -15.49 15.49 s 6.949 15.491 15.49 15.491 s 15.49 -6.949 15.49 -15.491 S 75.066 4 66.525 4 z" style="stroke: none; stroke-width: 1; stroke-dasharray: none; stroke-linecap: butt; stroke-linejoin: miter; stroke-miterlimit: 10; fill: rgb(0,0,0); fill-rule: nonzero; opacity: 1;" transform=" matrix(1 0 0 1 0 0) " stroke-linecap="round" />
</g>
</svg>